<svg width="32" height="32" viewBox="0 0 100 100" fill="none" xmlns="http://www.w3.org/2000/svg">
  <g transform="translate(10, 10) scale(0.8)">
    <g transform="translate(20, 10)">
      <path d="M 20 0 L 40 10 L 20 20 L 0 10 Z" fill="#FBBF24" />
      <path d="M 0 10 L 20 20 L 20 40 L 0 30 Z" fill="#F59E0B" />
      <path d="M 20 20 L 40 10 L 40 30 L 20 40 Z" fill="#F97316" />
    </g>
    <g transform="translate(20, 35)">
      <path d="M 20 0 L 40 10 L 20 20 L 0 10 Z" fill="#F59E0B" />
      <path d="M 0 10 L 20 20 L 20 40 L 0 30 Z" fill="#EA580C" />
      <path d="M 20 20 L 40 10 L 40 30 L 20 40 Z" fill="#D97706" />
    </g>
    <g transform="translate(20, 60)">
      <path d="M 20 0 L 40 10 L 20 20 L 0 10 Z" fill="#EA580C" />
      <path d="M 0 10 L 20 20 L 20 40 L 0 30 Z" fill="#991B1B" />
      <path d="M 20 20 L 40 10 L 40 30 L 20 40 Z" fill="#B91C1C" />
    </g>
    <g transform="translate(50, 10)">
      <path d="M 20 0 L 40 10 L 20 20 L 0 10 Z" fill="#FCD34D" />
      <path d="M 0 10 L 20 20 L 20 40 L 0 30 Z" fill="#F59E0B" />
      <path d="M 20 20 L 40 10 L 40 30 L 20 40 Z" fill="#FBBF24" />
    </g>
    <g transform="translate(45, 45)">
      <path d="M 20 0 L 40 10 L 20 20 L 0 10 Z" fill="#F97316" />
      <path d="M 0 10 L 20 20 L 20 40 L 0 30 Z" fill="#C2410C" />
      <path d="M 20 20 L 40 10 L 40 30 L 20 40 Z" fill="#EA580C" />
    </g>
    <g transform="translate(60, 60)">
      <path d="M 20 0 L 40 10 L 20 20 L 0 10 Z" fill="#EA580C" />
      <path d="M 0 10 L 20 20 L 20 40 L 0 30 Z" fill="#7F1D1D" />
      <path d="M 20 20 L 40 10 L 40 30 L 20 40 Z" fill="#991B1B" />
    </g>
  </g>
</svg>
